<svg width="11" height="12" viewBox="0 0 11 12" fill="none" xmlns="http://www.w3.org/2000/svg">
  <path d="M10.7462 1.929C11.0706 1.60454 11.0706 1.07847 10.7462 0.754004V0.754004C10.4217 0.429537 9.89563 0.429537 9.57116 0.754004L5.50033 4.82484L1.42949 0.754004C1.10503 0.429537 0.578959 0.429537 0.254492 0.754004V0.754004C-0.0699752 1.07847 -0.069975 1.60454 0.254492 1.929L4.32533 5.99984L0.254492 10.0707C-0.0699748 10.3951 -0.0699752 10.9212 0.254492 11.2457V11.2457C0.578959 11.5701 1.10502 11.5701 1.42949 11.2457L5.50033 7.17484L9.57116 11.2457C9.89563 11.5701 10.4217 11.5701 10.7462 11.2457V11.2457C11.0706 10.9212 11.0706 10.3951 10.7462 10.0707L6.67533 5.99984L10.7462 1.929Z" fill="currentColor" />
</svg>