<svg width="48" height="48" viewBox="0 0 48 48" fill="none" xmlns="http://www.w3.org/2000/svg">
  <path d="M14.6667 28L21.3333 36L30.6667 24L42.6667 40H5.33333L14.6667 28ZM48 42.6667V5.33333C48 2.37333 45.6 0 42.6667 0H5.33333C3.91885 0 2.56229 0.561903 1.5621 1.5621C0.561903 2.56229 0 3.91885 0 5.33333V42.6667C0 44.0812 0.561903 45.4377 1.5621 46.4379C2.56229 47.4381 3.91885 48 5.33333 48H42.6667C44.0812 48 45.4377 47.4381 46.4379 46.4379C47.4381 45.4377 48 44.0812 48 42.6667Z" fill="currentColor" />
</svg>